<svg xmlns="http://www.w3.org/2000/svg" xml:space="preserve" width="660px" height="600px" version="1.1" style="shape-rendering:geometricPrecision; text-rendering:geometricPrecision; image-rendering:optimizeQuality; fill-rule:evenodd; clip-rule:evenodd" viewBox="0 0 660 600" xmlns:xlink="http://www.w3.org/1999/xlink">
 <defs>
  <style type="text/css">
   <![CDATA[
    .fil21 {fill:#32b076}
    .fil14 {fill:#DADBDB}
    .fil13 {fill:#E9EAEA}
    .fil8 {fill:#EDB38C}
    .fil17 {fill:#32b076;fill-rule:nonzero}
    .fil15 {fill:#32c682;fill-rule:nonzero}
    .fil10 {fill:#192F38;fill-rule:nonzero}
    .fil11 {fill:#1A2326;fill-rule:nonzero}
    .fil9 {fill:#1E1E1E;fill-rule:nonzero}
    .fil3 {fill:#3B86C2;fill-rule:nonzero}
    .fil20 {fill:#545DA5;fill-rule:nonzero}
    .fil5 {fill:#5497CC;fill-rule:nonzero}
    .fil2 {fill:#5BAF4D;fill-rule:nonzero}
    .fil18 {fill:#C28281;fill-rule:nonzero}
    .fil4 {fill:#C58F64;fill-rule:nonzero}
    .fil19 {fill:#D6D4D2;fill-rule:nonzero}
    .fil6 {fill:#D9DADA;fill-rule:nonzero}
    .fil12 {fill:#EDB38C;fill-rule:nonzero}
    .fil16 {fill:#FFC8A3;fill-rule:nonzero}
    .fil7 {fill:url(#id0);fill-rule:nonzero}
    .fil1 {fill:url(#id1);fill-rule:nonzero}
    .fil0 {fill:url(#id2);fill-rule:nonzero}
   ]]>
  </style>
  <linearGradient id="id0" gradientUnits="userSpaceOnUse" x1="226.94" y1="578.5" x2="22.5" y2="578.5">
   <stop offset="0" style="stop-opacity:1; stop-color:#ECECEC"/>
   <stop offset="1" style="stop-opacity:1; stop-color:#F6F6F7"/>
  </linearGradient>
  <linearGradient id="id1" gradientUnits="userSpaceOnUse" x1="199.11" y1="251.81" x2="537.11" y2="368.96">
   <stop offset="0" style="stop-opacity:1; stop-color:#10252E"/>
   <stop offset="1" style="stop-opacity:1; stop-color:#002E42"/>
  </linearGradient>
  <linearGradient id="id2" gradientUnits="userSpaceOnUse" xlink:href="#id1" x1="564.92" y1="252.66" x2="141.24" y2="201.1">
  </linearGradient>
 </defs>
 <g id="Layer_x0020_1">
  <g id="_2719563546400">
   <g>
    <path class="fil0" d="M222.79 96.93c4.22,0.64 8.15,1.96 11.71,3.85 10.09,-22.03 33.84,-35.68 58.99,-31.91 5.82,0.87 11.3,2.62 16.32,5.08 -0.16,-3.92 0.05,-7.9 0.65,-11.92 5.17,-34.48 37.31,-58.24 71.79,-53.07 22.09,3.32 39.78,17.7 48.28,36.68 14.83,2.89 27.5,10.81 36.52,21.71 13.2,-19.48 36.82,-30.75 61.64,-27.03 18.5,2.78 33.91,13.32 43.42,27.82 6.86,-1.93 14.23,-2.48 21.73,-1.35 28.32,4.25 47.83,30.65 43.58,58.96 -3.04,20.28 -23.01,35.27 -22.56,37.59 32.75,39.66 31.12,113.07 -12.51,142.59l-343.93 -45.04 -17.55 -50.31 -49.05 -18.11c-4.65,1.21 -9.6,1.52 -14.65,0.76 -14.75,-2.21 -26.12,-12.92 -29.89,-26.42 -0.88,-0.02 -1.77,-0.09 -2.67,-0.23 -7.81,-1.17 -14,-6.45 -16.69,-13.31 -0.14,0 -0.27,0 -0.4,0 -7.99,0 -14.46,-6.47 -14.46,-14.46 0,-7.98 6.47,-14.46 14.46,-14.46 3.37,0 6.46,1.15 8.92,3.08 4.17,-2.62 9.25,-3.82 14.5,-3.03 3.4,0.51 6.5,1.8 9.13,3.66 6.4,-4.99 14.44,-7.86 22.95,-7.75 5.94,-15.87 22.34,-25.99 39.77,-23.38zm402.87 266.49c5.95,-0.23 10.59,-5.24 10.36,-11.19 -0.23,-5.94 -5.24,-10.58 -11.19,-10.36 -5.95,0.23 -10.59,5.24 -10.36,11.19 0.23,5.95 5.24,10.59 11.19,10.36zm14.85 -69.68c4,0 7.24,-3.24 7.24,-7.24 0,-4 -3.24,-7.24 -7.24,-7.24 -4,0 -7.24,3.24 -7.24,7.24 0,4 3.24,7.24 7.24,7.24zm-11.26 41.6c9.58,0 17.35,-7.77 17.35,-17.35 0,-9.58 -7.77,-17.34 -17.35,-17.34 -9.58,0 -17.34,7.76 -17.34,17.34 0,9.58 7.76,17.35 17.34,17.35zm-162.51 -281.56c7.69,-0.3 13.69,-6.77 13.39,-14.46 -0.29,-7.7 -6.77,-13.69 -14.46,-13.4 -7.69,0.3 -13.69,6.77 -13.39,14.46 0.29,7.69 6.77,13.69 14.46,13.4zm-24.68 -15.91c4.07,-0.16 7.25,-3.58 7.09,-7.65 -0.16,-4.07 -3.58,-7.25 -7.65,-7.09 -4.07,0.16 -7.24,3.58 -7.09,7.65 0.16,4.07 3.58,7.25 7.65,7.09zm-217.58 50.85c9.07,0 16.42,-7.35 16.42,-16.42 0,-9.06 -7.35,-16.41 -16.42,-16.41 -9.06,0 -16.41,7.35 -16.41,16.41 0,9.07 7.35,16.42 16.41,16.42zm30.65 -22.16c5.2,0 9.41,-4.22 9.41,-9.42 0,-5.2 -4.21,-9.42 -9.41,-9.42 -5.2,0 -9.42,4.22 -9.42,9.42 0,5.2 4.22,9.42 9.42,9.42z"/>
    <path class="fil1" d="M385.54 410.86c-17.54,-2.63 -31.93,-13.15 -40.12,-27.42 -4.01,1.03 -8.21,1.58 -12.54,1.58 -27.7,0 -50.15,-22.45 -50.15,-50.14 0,-1.81 0.1,-3.6 0.29,-5.36 -1.19,-0.11 -2.37,-0.26 -3.56,-0.44 -37.47,-5.62 -63.29,-40.55 -57.66,-78.01 0.63,-4.26 1.66,-8.37 3.02,-12.3 -19.14,-7.44 -32.22,-25.68 -33,-46.3 8.56,-2.59 13.21,-6.77 17.47,-9.84 50.82,-36.69 70.86,13.83 91.56,39.61 16.37,20.38 34.35,31.79 121.45,5.63 23.42,-7.03 48.9,-11.17 84.78,-5.87 61.43,9.07 105.14,64.97 98.99,126.73 -5.91,59.36 -55.75,105.01 -115.56,105.18 -35.35,0.1 -68.51,-15.67 -90.66,-42.75 -4.66,0.51 -9.46,0.43 -14.31,-0.3zm-182.71 -149.68c7.7,-0.3 13.69,-6.77 13.4,-14.46 -0.3,-7.69 -6.77,-13.69 -14.46,-13.4 -7.7,0.3 -13.69,6.77 -13.4,14.46 0.3,7.7 6.77,13.69 14.46,13.4zm7.37 19.2c4.07,-0.15 7.24,-3.58 7.09,-7.65 -0.16,-4.07 -3.58,-7.24 -7.65,-7.09 -4.08,0.16 -7.25,3.58 -7.09,7.66 0.15,4.07 3.58,7.24 7.65,7.08zm155.88 151.24c5.17,0 9.36,-4.2 9.36,-9.37 0,-5.17 -4.19,-9.36 -9.36,-9.36 -5.17,0 -9.36,4.19 -9.36,9.36 0,5.17 4.19,9.37 9.36,9.37zm-60.4 -31.35c4.21,0 7.62,-3.41 7.62,-7.62 0,-4.2 -3.41,-7.61 -7.62,-7.61 -4.2,0 -7.61,3.41 -7.61,7.61 0,4.21 3.41,7.62 7.61,7.62zm28.07 23.96c8.92,0 16.15,-7.23 16.15,-16.15 0,-8.92 -7.23,-16.16 -16.15,-16.16 -8.92,0 -16.15,7.24 -16.15,16.16 0,8.92 7.23,16.15 16.15,16.15z"/>
    <g>
     <path class="fil2" d="M284.84 99.4c-2.01,0 -3.64,-1.64 -3.64,-3.65 0,-2.02 1.63,-3.65 3.64,-3.65l33.91 0c2.01,0 3.64,1.63 3.64,3.65 0,2.01 -1.63,3.65 -3.64,3.65l-33.91 0z"/>
     <path class="fil2" d="M284.84 120.42c-2.01,0 -3.64,-1.63 -3.64,-3.65 0,-2.01 1.63,-3.65 3.64,-3.65l90.39 0c2.01,0 3.65,1.64 3.65,3.65 0,2.02 -1.64,3.65 -3.65,3.65l-90.39 0z"/>
     <path class="fil3" d="M397.97 120.42c-2.01,0 -3.65,-1.63 -3.65,-3.65 0,-2.01 1.64,-3.65 3.65,-3.65l167.83 0c2.02,0 3.65,1.64 3.65,3.65 0,2.02 -1.63,3.65 -3.65,3.65l-167.83 0z"/>
     <path class="fil2" d="M284.84 141.44c-2.01,0 -3.64,-1.63 -3.64,-3.65 0,-2.01 1.63,-3.64 3.64,-3.64l183.38 0c2.02,0 3.65,1.63 3.65,3.64 0,2.02 -1.63,3.65 -3.65,3.65l-183.38 0z"/>
     <path class="fil2" d="M284.84 162.47c-2.01,0 -3.64,-1.64 -3.64,-3.65 0,-2.02 1.63,-3.65 3.64,-3.65l249.15 0c2.01,0 3.65,1.63 3.65,3.65 0,2.01 -1.64,3.65 -3.65,3.65l-249.15 0z"/>
     <path class="fil2" d="M284.84 183.49c-2.01,0 -3.64,-1.64 -3.64,-3.65 0,-2.02 1.63,-3.65 3.64,-3.65l105.25 0c2.01,0 3.65,1.63 3.65,3.65 0,2.01 -1.64,3.65 -3.65,3.65l-105.25 0z"/>
     <path class="fil2" d="M284.84 204.51c-2.01,0 -3.64,-1.63 -3.64,-3.65 0,-2.01 1.63,-3.65 3.64,-3.65l33.91 0c2.01,0 3.64,1.64 3.64,3.65 0,2.02 -1.63,3.65 -3.64,3.65l-33.91 0z"/>
     <path class="fil4" d="M284.84 238.59c-2.01,0 -3.64,-1.63 -3.64,-3.65 0,-2.01 1.63,-3.65 3.64,-3.65l105.71 0c2.01,0 3.65,1.64 3.65,3.65 0,2.02 -1.64,3.65 -3.65,3.65l-105.71 0z"/>
     <path class="fil5" d="M284.84 272.67c-2.01,0 -3.64,-1.63 -3.64,-3.65 0,-2.01 1.63,-3.65 3.64,-3.65l30.98 0c2.01,0 3.65,1.64 3.65,3.65 0,2.02 -1.64,3.65 -3.65,3.65l-30.98 0z"/>
     <path class="fil6" d="M337.97 272.67c-2.01,0 -3.65,-1.63 -3.65,-3.65 0,-2.01 1.64,-3.65 3.65,-3.65l176.2 0c2.01,0 3.65,1.64 3.65,3.65 0,2.02 -1.64,3.65 -3.65,3.65l-176.2 0z"/>
     <path class="fil6" d="M337.97 290.5c-2.01,0 -3.65,-1.63 -3.65,-3.65 0,-2.01 1.64,-3.65 3.65,-3.65l27.61 0c2.01,0 3.65,1.64 3.65,3.65 0,2.02 -1.64,3.65 -3.65,3.65l-27.61 0z"/>
     <path class="fil4" d="M392.47 290.5c-2.02,0 -3.65,-1.63 -3.65,-3.65 0,-2.01 1.63,-3.65 3.65,-3.65l131.62 0c2.02,0 3.65,1.64 3.65,3.65 0,2.02 -1.63,3.65 -3.65,3.65l-131.62 0z"/>
     <path class="fil6" d="M337.97 308.33c-2.01,0 -3.65,-1.64 -3.65,-3.65 0,-2.02 1.64,-3.65 3.65,-3.65l58 0c2.02,0 3.65,1.63 3.65,3.65 0,2.01 -1.63,3.65 -3.65,3.65l-58 0z"/>
     <path class="fil2" d="M422.86 308.33c-2.01,0 -3.65,-1.64 -3.65,-3.65 0,-2.02 1.64,-3.65 3.65,-3.65l141.98 0c2.01,0 3.65,1.63 3.65,3.65 0,2.01 -1.64,3.65 -3.65,3.65l-141.98 0z"/>
     <path class="fil6" d="M337.97 326.15c-2.01,0 -3.65,-1.63 -3.65,-3.65 0,-2.01 1.64,-3.64 3.65,-3.64l100.71 0c2.01,0 3.65,1.63 3.65,3.64 0,2.02 -1.64,3.65 -3.65,3.65l-100.71 0z"/>
     <path class="fil4" d="M465.56 326.15c-2.01,0 -3.64,-1.63 -3.64,-3.65 0,-2.01 1.63,-3.64 3.64,-3.64l74.95 0c2.01,0 3.65,1.63 3.65,3.64 0,2.02 -1.64,3.65 -3.65,3.65l-74.95 0z"/>
     <path class="fil6" d="M337.97 343.98c-2.01,0 -3.65,-1.63 -3.65,-3.65 0,-2.01 1.64,-3.65 3.65,-3.65l40.85 0c2.02,0 3.65,1.64 3.65,3.65 0,2.02 -1.63,3.65 -3.65,3.65l-40.85 0z"/>
     <path class="fil4" d="M405.71 343.98c-2.02,0 -3.65,-1.63 -3.65,-3.65 0,-2.01 1.63,-3.65 3.65,-3.65l147.93 0c2.01,0 3.65,1.64 3.65,3.65 0,2.02 -1.64,3.65 -3.65,3.65l-147.93 0z"/>
     <path class="fil6" d="M337.97 361.81c-2.01,0 -3.65,-1.64 -3.65,-3.65 0,-2.02 1.64,-3.65 3.65,-3.65l54.5 0c2.01,0 3.64,1.63 3.64,3.65 0,2.01 -1.63,3.65 -3.64,3.65l-54.5 0z"/>
     <path class="fil5" d="M419.35 361.81c-2.01,0 -3.65,-1.64 -3.65,-3.65 0,-2.02 1.64,-3.65 3.65,-3.65l156.49 0c2.02,0 3.65,1.63 3.65,3.65 0,2.01 -1.63,3.65 -3.65,3.65l-156.49 0z"/>
    </g>
   </g>
   <path class="fil7" d="M136.61 591.74c-63.02,0 -114.11,-6.04 -114.11,-13.5 0,-7.45 51.09,-13.5 114.11,-13.5 63.03,0 114.12,6.05 114.12,13.5 0,7.46 -51.09,13.5 -114.12,13.5z"/>
   <polygon class="fil8" points="112.6,557.29 112.6,533.58 129.41,533.58 129.41,557.29 "/>
   <polygon class="fil8" points="163.42,525.77 181.25,524.24 187.25,545.14 172.75,550.03 "/>
   <path class="fil9" d="M75.89 573.97l-1.1 3.08c-0.37,1.04 -0.23,2.11 0.41,3.02 0.64,0.9 1.59,1.4 2.7,1.4l55.57 0c1,0 1.86,-0.4 2.52,-1.16 0.64,-0.76 0.9,-1.68 0.74,-2.67 -0.67,-4.22 -2.35,-11.62 -6.46,-20.51 -0.52,-1.14 -1.57,-1.85 -2.83,-1.91l-13.59 -0.69c-0.84,-0.04 -1.57,0.2 -2.22,0.72l-11.14 8.88c-0.32,0.25 -0.62,0.41 -1,0.54l-21.55 7.29c-0.98,0.33 -1.69,1.03 -2.05,2.01z"/>
   <path class="fil10" d="M132.07 326.76l45.74 0 -21.74 105.28c0,0 20.83,20.58 29.89,102.54l-19.39 6.7 -41.29 -103.13 6.79 -111.39z"/>
   <path class="fil10" d="M112.26 323.7l-5.51 103.92 2.79 121.74 23.28 0c0,0 11.47,-88.11 1.57,-113.25l33.23 -112.41 -55.36 0z"/>
   <path class="fil9" d="M163.67 562.59l-15.76 6.77c-0.86,0.37 -1.47,1.01 -1.8,1.9l-0.93 2.54c-0.38,1.05 -0.25,2.12 0.39,3.03 0.64,0.91 1.6,1.41 2.71,1.41l28.53 0c0.81,0 1.51,-0.25 2.13,-0.78l21.88 -18.53c0.74,-0.62 1.13,-1.43 1.17,-2.39 0.04,-0.96 -0.3,-1.8 -0.98,-2.47 -2.7,-2.68 -7.41,-6.87 -13.12,-10 -0.79,-0.43 -1.61,-0.53 -2.48,-0.28l-11.92 3.32c-0.93,0.26 -1.64,0.84 -2.07,1.71l-6.1 12.21c-0.37,0.73 -0.91,1.24 -1.65,1.56z"/>
   <path class="fil11" d="M178.39 487.94c-16.85,7.7 -22.21,-18.78 -39.61,-15.84 -0.1,-14.6 -1.25,-28.01 -4.39,-35.99l26.82 -90.72 -49.43 -12.64 66.03 -5.99 -21.74 105.28 0 0 0 0c0.06,0.04 12.36,10.04 22.32,55.9z"/>
   <polygon class="fil12" points="94.04,262.1 87.56,258.94 93.65,251.38 96.81,255.62 "/>
   <path class="fil13" d="M69.2 208.75l32.15 47.7c0,0 -12.41,-1.46 -21.24,8.95l-16.71 -15.96 -19.71 -28.37c5.39,-9.18 11.58,-12.48 25.51,-12.32z"/>
   <path class="fil14" d="M43.61 220.98l36.5 44.42c0,0 -18.88,-6.97 -28.63,3.65l-39.23 -37.91c7.83,-9.22 19.9,-12.8 31.36,-10.16z"/>
   <path class="fil15" d="M116 208.74c0,0 -2.72,-14.94 25.81,-20.71l5.94 11.54c0,0 11.04,8.15 16.3,28.87 5.27,20.72 7.64,59.09 10.02,70.47 2.38,11.38 6.28,41.31 6.28,41.31 -27.44,6.99 -47.72,-7.52 -73.41,0l-0.17 -38.67c-0.14,-32.8 1.87,-81.28 9.23,-92.81z"/>
   <path class="fil16" d="M55.85 267.81c0,0 -6.13,-13.06 -10.61,-18.54 0,0 -10.56,-1.49 -10.56,0.21 0,1.69 8.66,2.36 6.51,5.64 -1.84,2.66 -12.88,-8.5 -13.18,-8.83 0,0 -3.16,14.58 3.97,19.11 7.13,4.53 22.4,11.47 22.4,11.47l1.47 -9.06z"/>
   <path class="fil16" d="M97.54 249.44c0,0 0.09,-4.1 -3.96,-9.85 -1.52,-2.16 -4.17,-3.46 -6.72,-4.25 -13.56,-4.18 -2.4,4.93 0.84,6.46 0,0 1.88,11.52 6.99,12.92 0.94,0.25 2.66,-3.54 2.85,-5.28z"/>
   <polygon class="fil17" points="91.12,261.33 97.54,249.44 111.58,256.45 104.11,271.17 "/>
   <g>
    <path class="fil16" d="M82.64 169.42l2.01 2.99c5.14,7.83 -2.81,18.44 7.32,13.64 0,0 5.22,10.24 7.39,11.64 2.17,1.41 10.23,-2.02 12.83,-1.8 2.61,0.22 6.51,6.86 6.51,6.86l18.66 -7.58 -9.53 -16.69 -2.77 -20.58 -42.33 -5 -9.26 11.04 9.17 5.48z"/>
    <path class="fil12" d="M117.76 201.27c-4.86,-7.27 -5.36,-5.66 -12.89,-3.86 6.09,-4.14 12.22,-11.87 13.92,-19.11 0,0 2.28,2.13 5.13,2.62 1.75,0.3 3.23,-0.06 4.66,-1.11l7.49 13.11c-10.22,1.44 -15.54,5.01 -18.31,8.35z"/>
    <path class="fil9" d="M86.39 162.75c3.39,1.13 8.57,2.78 12.92,3.23 4.16,0.34 6.32,3.32 7.26,6.68 0.99,3.52 3.86,4.59 4.19,-0.44 0.14,-2.07 0.64,-4.34 2.02,-5.75 3.07,-3.15 8.2,-0.89 7.35,4.02 -0.84,4.91 -1.34,7.81 -1.34,7.81 0,0 5.14,4.79 9.59,1.66 4.27,-3.02 7.84,-50.26 -29.51,-50.15 -22.25,0.06 -22.32,25.53 -24.74,30.33 -2.42,4.81 -8.74,3.72 -10.15,0.56 -1.24,7.23 5.99,8.9 10.56,8.79 4.57,-0.1 9.71,-3.35 11.85,-6.74z"/>
    <polygon class="fil18" points="84.65,172.41 82.94,161.66 84.65,172.41 "/>
   </g>
   <polygon class="fil19" points="106.94,332.7 106.94,332.7 106.94,332.7 "/>
   <path class="fil20" d="M106.94 332.7c0,0 0,0 0,0l0 0c0,0 0,0 0,0z"/>
   <path class="fil19" d="M106.94 332.69l0 0 0 0zm0 0l0 0 0 0zm0 -0.01l0 0c0,0 0,0 0,0l0 0z"/>
   <path class="fil20" d="M106.94 332.69l0 0 0 0c0,0 0,0 0,0l0 0c0,0 0,0 0,-0.01l0 0c0,0.01 0,0.01 0,0.01z"/>
   <path class="fil19" d="M106.94 332.66l0 0 0 0zm0 -0.03l0 -0.01 0 0.01zm0 -0.1c0,0 0,0 0,0 0,0 0,0 0,0z"/>
   <path class="fil17" d="M106.78 301.55l14.69 -59.73 12.82 -9.19c0,0 -0.74,32.8 -9.51,63.18 -3.88,13.47 -9.15,33.35 -17.84,44.41l-0.16 -38.67z"/>
   <path class="fil15" d="M53.34 263.93l43.47 9.17c0,0 11.04,-36.85 13.75,-46.19 2.72,-9.34 7.53,-17.15 15.65,-15.28 8.13,1.87 10.5,18 5.75,34.47 -4.76,16.47 -12.91,53.49 -23.77,55.36 -10.87,1.87 -59.78,-23.95 -59.78,-23.95l4.93 -13.58z"/>
   <path class="fil21" d="M116 208.74c11.11,-7.47 21.17,-6.11 31.75,-9.17l-5.94 -11.54c-2.76,0.55 -5.22,1.2 -7.42,1.9 -7.29,2.34 -20.13,9.26 -18.39,18.81z"/>
  </g>
 </g>
</svg>